<?xml version="1.0" encoding="UTF-8"?>
<svg version="1.1" xmlns="http://www.w3.org/2000/svg" width="32" height="32">
<path d="M0 0 C10.56 0 21.12 0 32 0 C32 10.56 32 21.12 32 32 C21.44 32 10.88 32 0 32 C0 21.44 0 10.88 0 0 Z " fill="#798FDC" transform="translate(0,0)"/>
<path d="M0 0 C10.56 0 21.12 0 32 0 C32 10.56 32 21.12 32 32 C21.44 32 10.88 32 0 32 C0 21.44 0 10.88 0 0 Z M3 3 C3 11.58 3 20.16 3 29 C6.63 29 10.26 29 14 29 C14 27.35 14 25.7 14 24 C15.65 24 17.3 24 19 24 C19 25.65 19 27.3 19 29 C22.3 29 25.6 29 29 29 C29 20.42 29 11.84 29 3 C20.42 3 11.84 3 3 3 Z " fill="#E9EAEE" transform="translate(0,0)"/>
<path d="M0 0 C9.57 0 19.14 0 29 0 C29 0.99 29 1.98 29 3 C20.42 3 11.84 3 3 3 C3 11.58 3 20.16 3 29 C2.67 29 2.34 29 2 29 C2 20.42 2 11.84 2 3 C1.34 3 0.68 3 0 3 C0 2.01 0 1.02 0 0 Z " fill="#D7DBEB" transform="translate(0,0)"/>
<path d="M0 0 C0.66 0 1.32 0 2 0 C2.33 8.58 2.66 17.16 3 26 C6.3 26.33 9.6 26.66 13 27 C12.67 27.66 12.34 28.32 12 29 C8.04 29 4.08 29 0 29 C0 19.43 0 9.86 0 0 Z " fill="#F2F2F0" transform="translate(0,3)"/>
<path d="M0 0 C1.65 0 3.3 0 5 0 C5 5.28 5 10.56 5 16 C3.35 16 1.7 16 0 16 C0 10.72 0 5.44 0 0 Z " fill="#EEEEEF" transform="translate(19,8)"/>
<path d="M0 0 C1.65 0 3.3 0 5 0 C5 5.28 5 10.56 5 16 C3.35 16 1.7 16 0 16 C0 10.72 0 5.44 0 0 Z " fill="#EDEEEF" transform="translate(8,8)"/>
<path d="M0 0 C1.65 0 3.3 0 5 0 C5 1.65 5 3.3 5 5 C8.3 5 11.6 5 15 5 C15 5.33 15 5.66 15 6 C10.545 6.495 10.545 6.495 6 7 C6 7.33 6 7.66 6 8 C3.36 8 0.72 8 -2 8 C-2 7.67 -2 7.34 -2 7 C-4.97 6.67 -7.94 6.34 -11 6 C-11 5.67 -11 5.34 -11 5 C-7.37 5 -3.74 5 0 5 C0 3.35 0 1.7 0 0 Z " fill="#DDE0ED" transform="translate(14,24)"/>
</svg>
